<?xml version="1.0" encoding="UTF-8"?>
<svg xmlns="http://www.w3.org/2000/svg" xmlns:xlink="http://www.w3.org/1999/xlink" width="24pt" height="24pt" viewBox="0 0 24 24" version="1.1">
<g id="surface17193653">
<path style=" stroke:none;fill-rule:nonzero;fill:rgb(20.392157%,59.607846%,85.882354%);fill-opacity:1;" d="M 13.824219 13.3125 C 13.824219 12.335938 15.941406 12.046875 15.941406 9.753906 C 15.941406 8.753906 15.871094 8.039062 15.425781 7.53125 C 15.390625 7.496094 15.367188 7.472656 15.332031 7.449219 C 15.171875 7.300781 14.984375 7.175781 14.757812 7.058594 C 14.757812 6.722656 16.632812 6.941406 16.632812 6.296875 C 16.3125 6.296875 12.523438 6.296875 12.523438 6.296875 C 12.523438 6.296875 9.503906 6.378906 8.617188 8.601562 C 8.523438 8.796875 8.46875 9.003906 8.421875 9.222656 C 8.375 9.464844 8.339844 9.730469 8.339844 10.007812 C 8.339844 13.578125 11.992188 13.175781 11.992188 13.175781 C 11.992188 13.175781 11.992188 13.714844 11.992188 14.085938 C 11.992188 14.453125 12.476562 14.328125 12.53125 15.074219 C 12.289062 15.074219 7.476562 14.9375 7.476562 18.1875 C 7.476562 21.445312 11.726562 21.285156 11.726562 21.285156 C 11.726562 21.285156 16.632812 21.503906 16.632812 17.472656 C 16.632812 15.0625 13.824219 14.28125 13.824219 13.3125 Z M 10.265625 10.203125 C 10.089844 9.5 10.113281 8.820312 10.308594 8.277344 C 10.367188 8.058594 10.460938 7.863281 10.574219 7.703125 C 10.78125 7.390625 11.058594 7.183594 11.402344 7.09375 C 11.785156 7 12.175781 7.058594 12.542969 7.265625 C 12.75 7.371094 12.945312 7.519531 13.121094 7.703125 C 13.476562 8.0625 13.777344 8.578125 13.9375 9.191406 C 14.316406 10.640625 13.824219 12.035156 12.796875 12.300781 C 11.785156 12.585938 10.65625 11.640625 10.265625 10.203125 Z M 12.382812 20.246094 C 10.691406 20.363281 9.226562 19.441406 9.144531 18.183594 C 9.066406 16.917969 10.378906 15.8125 12.082031 15.683594 C 13.777344 15.558594 15.214844 16.492188 15.320312 17.757812 C 15.390625 19.015625 14.089844 20.132812 12.382812 20.246094 Z M 12.382812 20.246094 "/>
<path style=" stroke:none;fill-rule:nonzero;fill:rgb(20.392157%,59.607846%,85.882354%);fill-opacity:1;" d="M 20 4 L 15.429688 7.429688 L 13.144531 7.429688 C 12.949219 7.222656 12.753906 7.199219 12.550781 7.246094 C 12.183594 7.039062 11.796875 6.984375 11.417969 7.074219 C 11.074219 7.164062 10.800781 7.371094 10.59375 7.679688 C 10.480469 7.839844 10.386719 8.035156 10.332031 8.25 C 9.976562 8.421875 9 9 9 9 L 3 9 L 11 4 Z M 20 4 "/>
<path style="fill:none;stroke-width:18.83333;stroke-linecap:round;stroke-linejoin:miter;stroke:rgb(20.392157%,59.607846%,85.882354%);stroke-opacity:1;stroke-miterlimit:10;" d="M 169.5 84.75 L 169.5 94.166667 " transform="matrix(0.106195,0,0,0.106195,0,0)"/>
<path style="fill:none;stroke-width:1;stroke-linecap:round;stroke-linejoin:miter;stroke:rgb(20.392157%,59.607846%,85.882354%);stroke-opacity:1;stroke-miterlimit:10;" d="M 169.5 47.083333 L 169.5 75.333333 " transform="matrix(0.106195,0,0,0.106195,0,0)"/>
</g>
</svg>
